<mxfile host="app.diagrams.net" modified="2022-08-30T04:53:59.950Z" agent="5.0 (Macintosh; Intel Mac OS X 10_15_7) AppleWebKit/537.36 (KHTML, like Gecko) Chrome/104.0.0.0 Safari/537.36" etag="bybSEpWvKt4_QJPUNYNq" version="20.2.7" type="github">
  <diagram id="7Yb7BEJE34QK27D92SjT" name="หน้า-1">
    <mxGraphModel dx="1358" dy="702" grid="1" gridSize="10" guides="1" tooltips="1" connect="1" arrows="1" fold="1" page="1" pageScale="1" pageWidth="827" pageHeight="1169" math="0" shadow="0">
      <root>
        <mxCell id="0" />
        <mxCell id="1" parent="0" />
        <mxCell id="kBUYY3JicaQnuEg0k6UB-94" value="เริ่มต้น" style="ellipse;whiteSpace=wrap;html=1;" vertex="1" parent="1">
          <mxGeometry x="110" y="90" width="80" height="40" as="geometry" />
        </mxCell>
        <mxCell id="kBUYY3JicaQnuEg0k6UB-95" value="ตรวจสอบข้อมูล VerifyToken" style="rounded=1;whiteSpace=wrap;html=1;" vertex="1" parent="1">
          <mxGeometry x="90" y="160" width="120" height="60" as="geometry" />
        </mxCell>
        <mxCell id="kBUYY3JicaQnuEg0k6UB-96" value="" style="edgeStyle=orthogonalEdgeStyle;rounded=0;orthogonalLoop=1;jettySize=auto;html=1;" edge="1" parent="1" source="kBUYY3JicaQnuEg0k6UB-94" target="kBUYY3JicaQnuEg0k6UB-95">
          <mxGeometry relative="1" as="geometry" />
        </mxCell>
        <mxCell id="kBUYY3JicaQnuEg0k6UB-97" style="edgeStyle=orthogonalEdgeStyle;rounded=0;orthogonalLoop=1;jettySize=auto;html=1;entryX=0;entryY=0.5;entryDx=0;entryDy=0;" edge="1" parent="1" source="kBUYY3JicaQnuEg0k6UB-98" target="kBUYY3JicaQnuEg0k6UB-109">
          <mxGeometry relative="1" as="geometry">
            <mxPoint x="250" y="290.0000000000001" as="targetPoint" />
            <Array as="points">
              <mxPoint x="220" y="290" />
              <mxPoint x="220" y="160" />
            </Array>
          </mxGeometry>
        </mxCell>
        <mxCell id="kBUYY3JicaQnuEg0k6UB-98" value="มีข้อมูล" style="rhombus;whiteSpace=wrap;html=1;rounded=1;" vertex="1" parent="1">
          <mxGeometry x="110" y="250" width="80" height="80" as="geometry" />
        </mxCell>
        <mxCell id="kBUYY3JicaQnuEg0k6UB-99" value="" style="edgeStyle=orthogonalEdgeStyle;rounded=0;orthogonalLoop=1;jettySize=auto;html=1;" edge="1" parent="1" source="kBUYY3JicaQnuEg0k6UB-95" target="kBUYY3JicaQnuEg0k6UB-98">
          <mxGeometry relative="1" as="geometry" />
        </mxCell>
        <mxCell id="kBUYY3JicaQnuEg0k6UB-100" value="" style="edgeStyle=orthogonalEdgeStyle;rounded=0;orthogonalLoop=1;jettySize=auto;html=1;" edge="1" parent="1" source="kBUYY3JicaQnuEg0k6UB-98">
          <mxGeometry relative="1" as="geometry">
            <mxPoint x="150" y="350" as="targetPoint" />
          </mxGeometry>
        </mxCell>
        <mxCell id="kBUYY3JicaQnuEg0k6UB-101" value="ใช่" style="text;html=1;align=center;verticalAlign=middle;resizable=0;points=[];autosize=1;strokeColor=none;fillColor=none;" vertex="1" parent="1">
          <mxGeometry x="150" y="320" width="40" height="30" as="geometry" />
        </mxCell>
        <mxCell id="kBUYY3JicaQnuEg0k6UB-102" value="ตรวจสอบข้อมูล otpToken" style="whiteSpace=wrap;html=1;rounded=1;" vertex="1" parent="1">
          <mxGeometry x="90" y="350" width="120" height="60" as="geometry" />
        </mxCell>
        <mxCell id="kBUYY3JicaQnuEg0k6UB-103" style="edgeStyle=orthogonalEdgeStyle;rounded=0;orthogonalLoop=1;jettySize=auto;html=1;entryX=0;entryY=0.5;entryDx=0;entryDy=0;" edge="1" parent="1" source="kBUYY3JicaQnuEg0k6UB-105" target="kBUYY3JicaQnuEg0k6UB-111">
          <mxGeometry relative="1" as="geometry">
            <Array as="points">
              <mxPoint x="230" y="475" />
              <mxPoint x="230" y="210" />
            </Array>
          </mxGeometry>
        </mxCell>
        <mxCell id="kBUYY3JicaQnuEg0k6UB-104" value="" style="edgeStyle=orthogonalEdgeStyle;rounded=0;orthogonalLoop=1;jettySize=auto;html=1;" edge="1" parent="1" source="kBUYY3JicaQnuEg0k6UB-105" target="kBUYY3JicaQnuEg0k6UB-115">
          <mxGeometry relative="1" as="geometry" />
        </mxCell>
        <mxCell id="kBUYY3JicaQnuEg0k6UB-105" value="มีข้อมูล" style="rhombus;whiteSpace=wrap;html=1;rounded=1;" vertex="1" parent="1">
          <mxGeometry x="110" y="435" width="80" height="80" as="geometry" />
        </mxCell>
        <mxCell id="kBUYY3JicaQnuEg0k6UB-106" value="" style="edgeStyle=orthogonalEdgeStyle;rounded=0;orthogonalLoop=1;jettySize=auto;html=1;" edge="1" parent="1" source="kBUYY3JicaQnuEg0k6UB-102" target="kBUYY3JicaQnuEg0k6UB-105">
          <mxGeometry relative="1" as="geometry" />
        </mxCell>
        <mxCell id="kBUYY3JicaQnuEg0k6UB-107" value="ไม่ใช่" style="text;html=1;align=center;verticalAlign=middle;resizable=0;points=[];autosize=1;strokeColor=none;fillColor=none;" vertex="1" parent="1">
          <mxGeometry x="165" y="255" width="50" height="30" as="geometry" />
        </mxCell>
        <mxCell id="kBUYY3JicaQnuEg0k6UB-108" style="edgeStyle=orthogonalEdgeStyle;rounded=0;orthogonalLoop=1;jettySize=auto;html=1;endArrow=none;endFill=0;" edge="1" parent="1" source="kBUYY3JicaQnuEg0k6UB-109">
          <mxGeometry relative="1" as="geometry">
            <mxPoint x="730" y="540" as="targetPoint" />
          </mxGeometry>
        </mxCell>
        <mxCell id="kBUYY3JicaQnuEg0k6UB-109" value="ส่ง Error Code 3&lt;br&gt;ไม่พบข้อมูล&amp;nbsp;VerifyToken" style="rounded=1;whiteSpace=wrap;html=1;" vertex="1" parent="1">
          <mxGeometry x="390" y="140" width="150" height="40" as="geometry" />
        </mxCell>
        <mxCell id="kBUYY3JicaQnuEg0k6UB-110" style="edgeStyle=orthogonalEdgeStyle;rounded=0;orthogonalLoop=1;jettySize=auto;html=1;endArrow=none;endFill=0;" edge="1" parent="1" source="kBUYY3JicaQnuEg0k6UB-111">
          <mxGeometry relative="1" as="geometry">
            <mxPoint x="730" y="210" as="targetPoint" />
          </mxGeometry>
        </mxCell>
        <mxCell id="kBUYY3JicaQnuEg0k6UB-111" value="ส่ง Error Code 4&lt;br&gt;ไม่มีข้อมูล otpToken" style="rounded=1;whiteSpace=wrap;html=1;" vertex="1" parent="1">
          <mxGeometry x="390" y="190" width="150" height="40" as="geometry" />
        </mxCell>
        <mxCell id="kBUYY3JicaQnuEg0k6UB-112" value="ไม่ใช่" style="text;html=1;align=center;verticalAlign=middle;resizable=0;points=[];autosize=1;strokeColor=none;fillColor=none;" vertex="1" parent="1">
          <mxGeometry x="170" y="435" width="50" height="30" as="geometry" />
        </mxCell>
        <mxCell id="kBUYY3JicaQnuEg0k6UB-113" value="ใช่" style="text;html=1;align=center;verticalAlign=middle;resizable=0;points=[];autosize=1;strokeColor=none;fillColor=none;" vertex="1" parent="1">
          <mxGeometry x="150" y="500" width="40" height="30" as="geometry" />
        </mxCell>
        <mxCell id="kBUYY3JicaQnuEg0k6UB-114" value="" style="edgeStyle=orthogonalEdgeStyle;rounded=0;orthogonalLoop=1;jettySize=auto;html=1;" edge="1" parent="1" source="kBUYY3JicaQnuEg0k6UB-115" target="kBUYY3JicaQnuEg0k6UB-118">
          <mxGeometry relative="1" as="geometry" />
        </mxCell>
        <mxCell id="kBUYY3JicaQnuEg0k6UB-115" value="ตรวจสอบข้อมูล&amp;nbsp;&lt;br&gt;actionType" style="whiteSpace=wrap;html=1;rounded=1;" vertex="1" parent="1">
          <mxGeometry x="90" y="545" width="120" height="60" as="geometry" />
        </mxCell>
        <mxCell id="kBUYY3JicaQnuEg0k6UB-116" style="edgeStyle=orthogonalEdgeStyle;rounded=0;orthogonalLoop=1;jettySize=auto;html=1;entryX=0.5;entryY=0;entryDx=0;entryDy=0;" edge="1" parent="1" source="kBUYY3JicaQnuEg0k6UB-118" target="kBUYY3JicaQnuEg0k6UB-131">
          <mxGeometry relative="1" as="geometry">
            <mxPoint x="150" y="770" as="targetPoint" />
          </mxGeometry>
        </mxCell>
        <mxCell id="kBUYY3JicaQnuEg0k6UB-117" style="edgeStyle=orthogonalEdgeStyle;rounded=0;orthogonalLoop=1;jettySize=auto;html=1;entryX=0;entryY=0.5;entryDx=0;entryDy=0;" edge="1" parent="1" source="kBUYY3JicaQnuEg0k6UB-118" target="kBUYY3JicaQnuEg0k6UB-120">
          <mxGeometry relative="1" as="geometry">
            <mxPoint x="250" y="300" as="targetPoint" />
            <Array as="points">
              <mxPoint x="250" y="680" />
              <mxPoint x="250" y="260" />
            </Array>
          </mxGeometry>
        </mxCell>
        <mxCell id="kBUYY3JicaQnuEg0k6UB-118" value="มีข้อมูล" style="rhombus;whiteSpace=wrap;html=1;rounded=1;" vertex="1" parent="1">
          <mxGeometry x="110" y="640" width="80" height="80" as="geometry" />
        </mxCell>
        <mxCell id="kBUYY3JicaQnuEg0k6UB-119" style="edgeStyle=orthogonalEdgeStyle;rounded=0;orthogonalLoop=1;jettySize=auto;html=1;endArrow=none;endFill=0;" edge="1" parent="1" source="kBUYY3JicaQnuEg0k6UB-120">
          <mxGeometry relative="1" as="geometry">
            <mxPoint x="730" y="160" as="targetPoint" />
          </mxGeometry>
        </mxCell>
        <mxCell id="kBUYY3JicaQnuEg0k6UB-120" value="ส่ง Error Code 5&lt;br&gt;ไม่มีข้อมูล actionType" style="rounded=1;whiteSpace=wrap;html=1;" vertex="1" parent="1">
          <mxGeometry x="390" y="240" width="150" height="40" as="geometry" />
        </mxCell>
        <mxCell id="kBUYY3JicaQnuEg0k6UB-121" value="ไม่ใช่" style="text;html=1;align=center;verticalAlign=middle;resizable=0;points=[];autosize=1;strokeColor=none;fillColor=none;" vertex="1" parent="1">
          <mxGeometry x="185" y="645" width="50" height="30" as="geometry" />
        </mxCell>
        <mxCell id="kBUYY3JicaQnuEg0k6UB-122" value="ใช่" style="text;html=1;align=center;verticalAlign=middle;resizable=0;points=[];autosize=1;strokeColor=none;fillColor=none;" vertex="1" parent="1">
          <mxGeometry x="150" y="725" width="40" height="30" as="geometry" />
        </mxCell>
        <mxCell id="kBUYY3JicaQnuEg0k6UB-123" value="" style="edgeStyle=orthogonalEdgeStyle;rounded=0;orthogonalLoop=1;jettySize=auto;html=1;" edge="1" parent="1" source="kBUYY3JicaQnuEg0k6UB-124" target="kBUYY3JicaQnuEg0k6UB-127">
          <mxGeometry relative="1" as="geometry" />
        </mxCell>
        <mxCell id="kBUYY3JicaQnuEg0k6UB-124" value="ตรวจสอบสถานะ&lt;br&gt;actionType" style="rounded=1;whiteSpace=wrap;html=1;" vertex="1" parent="1">
          <mxGeometry x="90" y="990" width="120" height="60" as="geometry" />
        </mxCell>
        <mxCell id="kBUYY3JicaQnuEg0k6UB-125" value="" style="edgeStyle=orthogonalEdgeStyle;rounded=0;orthogonalLoop=1;jettySize=auto;html=1;" edge="1" parent="1" source="kBUYY3JicaQnuEg0k6UB-127" target="kBUYY3JicaQnuEg0k6UB-141">
          <mxGeometry relative="1" as="geometry" />
        </mxCell>
        <mxCell id="kBUYY3JicaQnuEg0k6UB-126" style="edgeStyle=orthogonalEdgeStyle;rounded=0;orthogonalLoop=1;jettySize=auto;html=1;entryX=0;entryY=0.5;entryDx=0;entryDy=0;" edge="1" parent="1" source="kBUYY3JicaQnuEg0k6UB-127" target="kBUYY3JicaQnuEg0k6UB-165">
          <mxGeometry relative="1" as="geometry" />
        </mxCell>
        <mxCell id="kBUYY3JicaQnuEg0k6UB-127" value="ประเภท" style="rhombus;whiteSpace=wrap;html=1;rounded=1;" vertex="1" parent="1">
          <mxGeometry x="255" y="980" width="80" height="80" as="geometry" />
        </mxCell>
        <mxCell id="kBUYY3JicaQnuEg0k6UB-128" value="F" style="text;html=1;align=center;verticalAlign=middle;resizable=0;points=[];autosize=1;strokeColor=none;fillColor=none;" vertex="1" parent="1">
          <mxGeometry x="255" y="1050" width="30" height="30" as="geometry" />
        </mxCell>
        <mxCell id="kBUYY3JicaQnuEg0k6UB-129" value="R" style="text;html=1;align=center;verticalAlign=middle;resizable=0;points=[];autosize=1;strokeColor=none;fillColor=none;" vertex="1" parent="1">
          <mxGeometry x="330" y="970" width="30" height="30" as="geometry" />
        </mxCell>
        <mxCell id="kBUYY3JicaQnuEg0k6UB-130" value="" style="edgeStyle=orthogonalEdgeStyle;rounded=0;orthogonalLoop=1;jettySize=auto;html=1;" edge="1" parent="1" source="kBUYY3JicaQnuEg0k6UB-131" target="kBUYY3JicaQnuEg0k6UB-134">
          <mxGeometry relative="1" as="geometry" />
        </mxCell>
        <mxCell id="kBUYY3JicaQnuEg0k6UB-131" value="ตรวจสอบข้อมูล numberOTP" style="rounded=1;whiteSpace=wrap;html=1;" vertex="1" parent="1">
          <mxGeometry x="90" y="760" width="120" height="60" as="geometry" />
        </mxCell>
        <mxCell id="kBUYY3JicaQnuEg0k6UB-132" style="edgeStyle=orthogonalEdgeStyle;rounded=0;orthogonalLoop=1;jettySize=auto;html=1;entryX=0;entryY=0.5;entryDx=0;entryDy=0;" edge="1" parent="1" source="kBUYY3JicaQnuEg0k6UB-134" target="kBUYY3JicaQnuEg0k6UB-136">
          <mxGeometry relative="1" as="geometry">
            <mxPoint x="260" y="230" as="targetPoint" />
            <Array as="points">
              <mxPoint x="270" y="900" />
              <mxPoint x="270" y="310" />
            </Array>
          </mxGeometry>
        </mxCell>
        <mxCell id="kBUYY3JicaQnuEg0k6UB-133" value="" style="edgeStyle=orthogonalEdgeStyle;rounded=0;orthogonalLoop=1;jettySize=auto;html=1;" edge="1" parent="1" source="kBUYY3JicaQnuEg0k6UB-134" target="kBUYY3JicaQnuEg0k6UB-124">
          <mxGeometry relative="1" as="geometry" />
        </mxCell>
        <mxCell id="kBUYY3JicaQnuEg0k6UB-134" value="มีข้อมูล" style="rhombus;whiteSpace=wrap;html=1;rounded=1;" vertex="1" parent="1">
          <mxGeometry x="110" y="860" width="80" height="80" as="geometry" />
        </mxCell>
        <mxCell id="kBUYY3JicaQnuEg0k6UB-135" style="edgeStyle=orthogonalEdgeStyle;rounded=0;orthogonalLoop=1;jettySize=auto;html=1;endArrow=none;endFill=0;" edge="1" parent="1" source="kBUYY3JicaQnuEg0k6UB-136">
          <mxGeometry relative="1" as="geometry">
            <mxPoint x="730" y="200" as="targetPoint" />
          </mxGeometry>
        </mxCell>
        <mxCell id="kBUYY3JicaQnuEg0k6UB-136" value="ส่ง Error Code 6&lt;br&gt;ไม่มีข้อมูล numberOTP" style="rounded=1;whiteSpace=wrap;html=1;" vertex="1" parent="1">
          <mxGeometry x="390" y="290" width="150" height="40" as="geometry" />
        </mxCell>
        <mxCell id="kBUYY3JicaQnuEg0k6UB-137" value="ไม่ใช่" style="text;html=1;align=center;verticalAlign=middle;resizable=0;points=[];autosize=1;strokeColor=none;fillColor=none;" vertex="1" parent="1">
          <mxGeometry x="175" y="865" width="50" height="30" as="geometry" />
        </mxCell>
        <mxCell id="kBUYY3JicaQnuEg0k6UB-138" value="ใช่" style="text;html=1;align=center;verticalAlign=middle;resizable=0;points=[];autosize=1;strokeColor=none;fillColor=none;" vertex="1" parent="1">
          <mxGeometry x="170" y="915" width="40" height="30" as="geometry" />
        </mxCell>
        <mxCell id="kBUYY3JicaQnuEg0k6UB-139" value="" style="edgeStyle=orthogonalEdgeStyle;rounded=0;orthogonalLoop=1;jettySize=auto;html=1;entryX=0.5;entryY=0;entryDx=0;entryDy=0;" edge="1" parent="1" source="kBUYY3JicaQnuEg0k6UB-171" target="kBUYY3JicaQnuEg0k6UB-181">
          <mxGeometry relative="1" as="geometry">
            <mxPoint x="405" y="665" as="targetPoint" />
            <Array as="points">
              <mxPoint x="405" y="870" />
              <mxPoint x="525" y="870" />
            </Array>
          </mxGeometry>
        </mxCell>
        <mxCell id="kBUYY3JicaQnuEg0k6UB-140" value="" style="edgeStyle=orthogonalEdgeStyle;rounded=0;orthogonalLoop=1;jettySize=auto;html=1;" edge="1" parent="1" source="kBUYY3JicaQnuEg0k6UB-141">
          <mxGeometry relative="1" as="geometry">
            <mxPoint x="290" y="1220" as="targetPoint" />
            <Array as="points">
              <mxPoint x="290" y="1180" />
              <mxPoint x="290" y="1180" />
            </Array>
          </mxGeometry>
        </mxCell>
        <mxCell id="kBUYY3JicaQnuEg0k6UB-141" value="ค้นหาข้อมูลใน Table Request ที่ verifyToken ตรงกัน" style="rounded=1;whiteSpace=wrap;html=1;" vertex="1" parent="1">
          <mxGeometry x="210" y="1110" width="170" height="50" as="geometry" />
        </mxCell>
        <mxCell id="kBUYY3JicaQnuEg0k6UB-142" style="edgeStyle=orthogonalEdgeStyle;rounded=0;orthogonalLoop=1;jettySize=auto;html=1;endArrow=none;endFill=0;" edge="1" parent="1" source="kBUYY3JicaQnuEg0k6UB-178">
          <mxGeometry relative="1" as="geometry">
            <mxPoint x="730" y="750" as="targetPoint" />
          </mxGeometry>
        </mxCell>
        <mxCell id="kBUYY3JicaQnuEg0k6UB-143" style="edgeStyle=orthogonalEdgeStyle;rounded=0;orthogonalLoop=1;jettySize=auto;html=1;entryX=0;entryY=0.5;entryDx=0;entryDy=0;" edge="1" parent="1" source="kBUYY3JicaQnuEg0k6UB-144" target="kBUYY3JicaQnuEg0k6UB-161">
          <mxGeometry relative="1" as="geometry" />
        </mxCell>
        <mxCell id="kBUYY3JicaQnuEg0k6UB-144" value="" style="ellipse;whiteSpace=wrap;html=1;" vertex="1" parent="1">
          <mxGeometry x="610" y="1020" width="50" height="45" as="geometry" />
        </mxCell>
        <mxCell id="kBUYY3JicaQnuEg0k6UB-145" value="มีข้อมูล" style="rhombus;whiteSpace=wrap;html=1;rounded=1;" vertex="1" parent="1">
          <mxGeometry x="251" y="1215" width="80" height="80" as="geometry" />
        </mxCell>
        <mxCell id="kBUYY3JicaQnuEg0k6UB-146" value="ไม่ใช่" style="text;html=1;align=center;verticalAlign=middle;resizable=0;points=[];autosize=1;strokeColor=none;fillColor=none;" vertex="1" parent="1">
          <mxGeometry x="310" y="1420" width="50" height="30" as="geometry" />
        </mxCell>
        <mxCell id="kBUYY3JicaQnuEg0k6UB-147" value="เรียกใช้งาน Module ตรวจสอบรหัส OTP ด้วย Email" style="whiteSpace=wrap;html=1;rounded=1;" vertex="1" parent="1">
          <mxGeometry x="231" y="1320" width="120" height="60" as="geometry" />
        </mxCell>
        <mxCell id="kBUYY3JicaQnuEg0k6UB-148" value="" style="edgeStyle=orthogonalEdgeStyle;rounded=0;orthogonalLoop=1;jettySize=auto;html=1;" edge="1" parent="1" source="kBUYY3JicaQnuEg0k6UB-145" target="kBUYY3JicaQnuEg0k6UB-147">
          <mxGeometry relative="1" as="geometry" />
        </mxCell>
        <mxCell id="kBUYY3JicaQnuEg0k6UB-149" style="edgeStyle=orthogonalEdgeStyle;rounded=0;orthogonalLoop=1;jettySize=auto;html=1;entryX=0.5;entryY=1;entryDx=0;entryDy=0;" edge="1" parent="1" source="kBUYY3JicaQnuEg0k6UB-150" target="kBUYY3JicaQnuEg0k6UB-163">
          <mxGeometry relative="1" as="geometry">
            <mxPoint x="653" y="1170" as="targetPoint" />
            <Array as="points">
              <mxPoint x="291" y="1520" />
              <mxPoint x="653" y="1520" />
              <mxPoint x="653" y="1180" />
              <mxPoint x="725" y="1180" />
            </Array>
          </mxGeometry>
        </mxCell>
        <mxCell id="kBUYY3JicaQnuEg0k6UB-150" value="สำเร็จ" style="rhombus;whiteSpace=wrap;html=1;rounded=1;" vertex="1" parent="1">
          <mxGeometry x="251" y="1420" width="80" height="80" as="geometry" />
        </mxCell>
        <mxCell id="kBUYY3JicaQnuEg0k6UB-151" value="" style="edgeStyle=orthogonalEdgeStyle;rounded=0;orthogonalLoop=1;jettySize=auto;html=1;" edge="1" parent="1" source="kBUYY3JicaQnuEg0k6UB-147" target="kBUYY3JicaQnuEg0k6UB-150">
          <mxGeometry relative="1" as="geometry" />
        </mxCell>
        <mxCell id="kBUYY3JicaQnuEg0k6UB-152" style="edgeStyle=orthogonalEdgeStyle;rounded=0;orthogonalLoop=1;jettySize=auto;html=1;endArrow=classic;endFill=1;entryX=0.451;entryY=0.981;entryDx=0;entryDy=0;entryPerimeter=0;" edge="1" parent="1" source="kBUYY3JicaQnuEg0k6UB-153" target="kBUYY3JicaQnuEg0k6UB-186">
          <mxGeometry relative="1" as="geometry">
            <mxPoint x="510" y="1200" as="targetPoint" />
            <Array as="points">
              <mxPoint x="570" y="1460" />
              <mxPoint x="570" y="1200" />
              <mxPoint x="509" y="1200" />
            </Array>
          </mxGeometry>
        </mxCell>
        <mxCell id="kBUYY3JicaQnuEg0k6UB-153" value="ส่ง Error Code 1&lt;br&gt;ไม่สามารถยืนยัน OTP&amp;nbsp;" style="whiteSpace=wrap;html=1;rounded=1;" vertex="1" parent="1">
          <mxGeometry x="430" y="1430" width="120" height="60" as="geometry" />
        </mxCell>
        <mxCell id="kBUYY3JicaQnuEg0k6UB-154" value="" style="edgeStyle=orthogonalEdgeStyle;rounded=0;orthogonalLoop=1;jettySize=auto;html=1;" edge="1" parent="1" source="kBUYY3JicaQnuEg0k6UB-150" target="kBUYY3JicaQnuEg0k6UB-153">
          <mxGeometry relative="1" as="geometry" />
        </mxCell>
        <mxCell id="kBUYY3JicaQnuEg0k6UB-155" value="ไม่ใช่" style="text;html=1;align=center;verticalAlign=middle;resizable=0;points=[];autosize=1;strokeColor=none;fillColor=none;" vertex="1" parent="1">
          <mxGeometry x="310" y="1210" width="50" height="30" as="geometry" />
        </mxCell>
        <mxCell id="kBUYY3JicaQnuEg0k6UB-156" value="ใช่" style="text;html=1;align=center;verticalAlign=middle;resizable=0;points=[];autosize=1;strokeColor=none;fillColor=none;" vertex="1" parent="1">
          <mxGeometry x="246" y="1280" width="40" height="30" as="geometry" />
        </mxCell>
        <mxCell id="kBUYY3JicaQnuEg0k6UB-157" style="edgeStyle=orthogonalEdgeStyle;rounded=0;orthogonalLoop=1;jettySize=auto;html=1;endArrow=none;endFill=0;" edge="1" parent="1" source="kBUYY3JicaQnuEg0k6UB-158">
          <mxGeometry relative="1" as="geometry">
            <mxPoint x="570" y="1255" as="targetPoint" />
          </mxGeometry>
        </mxCell>
        <mxCell id="kBUYY3JicaQnuEg0k6UB-158" value="ส่ง Error Code 7&lt;br&gt;ไม่มีพบข้อมูลคำร้องที่ตรงกัน" style="rounded=1;whiteSpace=wrap;html=1;" vertex="1" parent="1">
          <mxGeometry x="376" y="1240" width="155" height="30" as="geometry" />
        </mxCell>
        <mxCell id="kBUYY3JicaQnuEg0k6UB-159" value="" style="edgeStyle=orthogonalEdgeStyle;rounded=0;orthogonalLoop=1;jettySize=auto;html=1;" edge="1" parent="1" source="kBUYY3JicaQnuEg0k6UB-145" target="kBUYY3JicaQnuEg0k6UB-158">
          <mxGeometry relative="1" as="geometry" />
        </mxCell>
        <mxCell id="kBUYY3JicaQnuEg0k6UB-160" value="ใช่" style="text;html=1;align=center;verticalAlign=middle;resizable=0;points=[];autosize=1;strokeColor=none;fillColor=none;" vertex="1" parent="1">
          <mxGeometry x="245" y="1490" width="40" height="30" as="geometry" />
        </mxCell>
        <mxCell id="kBUYY3JicaQnuEg0k6UB-161" value="สิ้นสุด" style="ellipse;whiteSpace=wrap;html=1;" vertex="1" parent="1">
          <mxGeometry x="740" y="1017.5" width="70" height="50" as="geometry" />
        </mxCell>
        <mxCell id="kBUYY3JicaQnuEg0k6UB-162" style="edgeStyle=orthogonalEdgeStyle;rounded=0;orthogonalLoop=1;jettySize=auto;html=1;entryX=0.5;entryY=1;entryDx=0;entryDy=0;" edge="1" parent="1" source="kBUYY3JicaQnuEg0k6UB-163" target="kBUYY3JicaQnuEg0k6UB-144">
          <mxGeometry relative="1" as="geometry" />
        </mxCell>
        <mxCell id="kBUYY3JicaQnuEg0k6UB-163" value="ส่งค่ากลับ Status : true&amp;nbsp;" style="rounded=1;whiteSpace=wrap;html=1;" vertex="1" parent="1">
          <mxGeometry x="660" y="1130" width="130" height="35" as="geometry" />
        </mxCell>
        <mxCell id="kBUYY3JicaQnuEg0k6UB-164" value="" style="group" vertex="1" connectable="0" parent="1">
          <mxGeometry x="327.5" y="397" width="325" height="395" as="geometry" />
        </mxCell>
        <mxCell id="kBUYY3JicaQnuEg0k6UB-165" value="ค้นหาข้อมูลใน Table Request Temp ที่ verifyToken ตรงกัน" style="rounded=1;whiteSpace=wrap;html=1;" vertex="1" parent="kBUYY3JicaQnuEg0k6UB-164">
          <mxGeometry width="170" height="50" as="geometry" />
        </mxCell>
        <mxCell id="kBUYY3JicaQnuEg0k6UB-166" value="มีข้อมูล" style="rhombus;whiteSpace=wrap;html=1;rounded=1;" vertex="1" parent="kBUYY3JicaQnuEg0k6UB-164">
          <mxGeometry x="45" y="90" width="80" height="80" as="geometry" />
        </mxCell>
        <mxCell id="kBUYY3JicaQnuEg0k6UB-167" value="" style="edgeStyle=orthogonalEdgeStyle;rounded=0;orthogonalLoop=1;jettySize=auto;html=1;" edge="1" parent="kBUYY3JicaQnuEg0k6UB-164" source="kBUYY3JicaQnuEg0k6UB-165" target="kBUYY3JicaQnuEg0k6UB-166">
          <mxGeometry relative="1" as="geometry" />
        </mxCell>
        <mxCell id="kBUYY3JicaQnuEg0k6UB-168" value="ไม่ใช่" style="text;html=1;align=center;verticalAlign=middle;resizable=0;points=[];autosize=1;strokeColor=none;fillColor=none;" vertex="1" parent="kBUYY3JicaQnuEg0k6UB-164">
          <mxGeometry x="104" y="295" width="50" height="30" as="geometry" />
        </mxCell>
        <mxCell id="kBUYY3JicaQnuEg0k6UB-169" value="เรียกใช้งาน Module ตรวจสอบรหัส OTP ด้วย Email" style="whiteSpace=wrap;html=1;rounded=1;" vertex="1" parent="kBUYY3JicaQnuEg0k6UB-164">
          <mxGeometry x="25" y="195" width="120" height="60" as="geometry" />
        </mxCell>
        <mxCell id="kBUYY3JicaQnuEg0k6UB-170" value="" style="edgeStyle=orthogonalEdgeStyle;rounded=0;orthogonalLoop=1;jettySize=auto;html=1;" edge="1" parent="kBUYY3JicaQnuEg0k6UB-164" source="kBUYY3JicaQnuEg0k6UB-166" target="kBUYY3JicaQnuEg0k6UB-169">
          <mxGeometry relative="1" as="geometry" />
        </mxCell>
        <mxCell id="kBUYY3JicaQnuEg0k6UB-171" value="สำเร็จ" style="rhombus;whiteSpace=wrap;html=1;rounded=1;" vertex="1" parent="kBUYY3JicaQnuEg0k6UB-164">
          <mxGeometry x="45" y="295" width="80" height="80" as="geometry" />
        </mxCell>
        <mxCell id="kBUYY3JicaQnuEg0k6UB-172" value="" style="edgeStyle=orthogonalEdgeStyle;rounded=0;orthogonalLoop=1;jettySize=auto;html=1;" edge="1" parent="kBUYY3JicaQnuEg0k6UB-164" source="kBUYY3JicaQnuEg0k6UB-169" target="kBUYY3JicaQnuEg0k6UB-171">
          <mxGeometry relative="1" as="geometry" />
        </mxCell>
        <mxCell id="kBUYY3JicaQnuEg0k6UB-173" value="ใช่" style="text;html=1;align=center;verticalAlign=middle;resizable=0;points=[];autosize=1;strokeColor=none;fillColor=none;" vertex="1" parent="kBUYY3JicaQnuEg0k6UB-164">
          <mxGeometry x="45" y="365" width="40" height="30" as="geometry" />
        </mxCell>
        <mxCell id="kBUYY3JicaQnuEg0k6UB-174" value="ส่ง Error Code 1&lt;br&gt;ไม่สามารถยืนยัน OTP&amp;nbsp;" style="whiteSpace=wrap;html=1;rounded=1;" vertex="1" parent="kBUYY3JicaQnuEg0k6UB-164">
          <mxGeometry x="180" y="305" width="120" height="60" as="geometry" />
        </mxCell>
        <mxCell id="kBUYY3JicaQnuEg0k6UB-175" value="" style="edgeStyle=orthogonalEdgeStyle;rounded=0;orthogonalLoop=1;jettySize=auto;html=1;" edge="1" parent="kBUYY3JicaQnuEg0k6UB-164" source="kBUYY3JicaQnuEg0k6UB-171" target="kBUYY3JicaQnuEg0k6UB-174">
          <mxGeometry relative="1" as="geometry" />
        </mxCell>
        <mxCell id="kBUYY3JicaQnuEg0k6UB-176" value="ไม่ใช่" style="text;html=1;align=center;verticalAlign=middle;resizable=0;points=[];autosize=1;strokeColor=none;fillColor=none;" vertex="1" parent="kBUYY3JicaQnuEg0k6UB-164">
          <mxGeometry x="104" y="85" width="50" height="30" as="geometry" />
        </mxCell>
        <mxCell id="kBUYY3JicaQnuEg0k6UB-177" value="ใช่" style="text;html=1;align=center;verticalAlign=middle;resizable=0;points=[];autosize=1;strokeColor=none;fillColor=none;" vertex="1" parent="kBUYY3JicaQnuEg0k6UB-164">
          <mxGeometry x="40" y="155" width="40" height="30" as="geometry" />
        </mxCell>
        <mxCell id="kBUYY3JicaQnuEg0k6UB-178" value="ส่ง Error Code 7&lt;br&gt;ไม่มีพบข้อมูลคำร้องที่ตรงกัน" style="rounded=1;whiteSpace=wrap;html=1;" vertex="1" parent="kBUYY3JicaQnuEg0k6UB-164">
          <mxGeometry x="170" y="115" width="155" height="30" as="geometry" />
        </mxCell>
        <mxCell id="kBUYY3JicaQnuEg0k6UB-179" value="" style="edgeStyle=orthogonalEdgeStyle;rounded=0;orthogonalLoop=1;jettySize=auto;html=1;" edge="1" parent="kBUYY3JicaQnuEg0k6UB-164" source="kBUYY3JicaQnuEg0k6UB-166" target="kBUYY3JicaQnuEg0k6UB-178">
          <mxGeometry relative="1" as="geometry" />
        </mxCell>
        <mxCell id="kBUYY3JicaQnuEg0k6UB-180" style="edgeStyle=orthogonalEdgeStyle;rounded=0;orthogonalLoop=1;jettySize=auto;html=1;entryX=0;entryY=0;entryDx=0;entryDy=0;endArrow=classic;endFill=1;" edge="1" parent="1" source="kBUYY3JicaQnuEg0k6UB-181" target="kBUYY3JicaQnuEg0k6UB-144">
          <mxGeometry relative="1" as="geometry">
            <Array as="points">
              <mxPoint x="525" y="990" />
              <mxPoint x="617" y="990" />
            </Array>
          </mxGeometry>
        </mxCell>
        <mxCell id="kBUYY3JicaQnuEg0k6UB-181" value="ส่งค่ากลับ Status : true&amp;nbsp;" style="rounded=1;whiteSpace=wrap;html=1;" vertex="1" parent="1">
          <mxGeometry x="460" y="930" width="130" height="35" as="geometry" />
        </mxCell>
        <mxCell id="kBUYY3JicaQnuEg0k6UB-182" style="edgeStyle=orthogonalEdgeStyle;rounded=0;orthogonalLoop=1;jettySize=auto;html=1;endArrow=classic;endFill=1;" edge="1" parent="1" source="kBUYY3JicaQnuEg0k6UB-183" target="kBUYY3JicaQnuEg0k6UB-144">
          <mxGeometry relative="1" as="geometry" />
        </mxCell>
        <mxCell id="kBUYY3JicaQnuEg0k6UB-183" value="ส่งค่ากลับ Status : false" style="rounded=1;whiteSpace=wrap;html=1;" vertex="1" parent="1">
          <mxGeometry x="660" y="935" width="130" height="35" as="geometry" />
        </mxCell>
        <mxCell id="kBUYY3JicaQnuEg0k6UB-184" style="edgeStyle=orthogonalEdgeStyle;rounded=0;orthogonalLoop=1;jettySize=auto;html=1;endArrow=classic;endFill=1;" edge="1" parent="1" source="kBUYY3JicaQnuEg0k6UB-174">
          <mxGeometry relative="1" as="geometry">
            <mxPoint x="730" y="930" as="targetPoint" />
          </mxGeometry>
        </mxCell>
        <mxCell id="kBUYY3JicaQnuEg0k6UB-185" style="edgeStyle=orthogonalEdgeStyle;rounded=0;orthogonalLoop=1;jettySize=auto;html=1;entryX=0;entryY=0.5;entryDx=0;entryDy=0;endArrow=classic;endFill=1;" edge="1" parent="1" source="kBUYY3JicaQnuEg0k6UB-186" target="kBUYY3JicaQnuEg0k6UB-144">
          <mxGeometry relative="1" as="geometry">
            <Array as="points">
              <mxPoint x="510" y="1070" />
              <mxPoint x="590" y="1070" />
              <mxPoint x="590" y="1042" />
            </Array>
          </mxGeometry>
        </mxCell>
        <mxCell id="kBUYY3JicaQnuEg0k6UB-186" value="ส่งค่ากลับ Status : false" style="rounded=1;whiteSpace=wrap;html=1;" vertex="1" parent="1">
          <mxGeometry x="450" y="1130" width="130" height="35" as="geometry" />
        </mxCell>
      </root>
    </mxGraphModel>
  </diagram>
</mxfile>
